<svg width="16" height="24" viewBox="0 0 16 24" fill="none" xmlns="http://www.w3.org/2000/svg">
<path d="M0.31 0.71C0.217297 0.802514 0.143749 0.912402 0.0935678 1.03338C0.0433864 1.15435 0.0175562 1.28403 0.0175562 1.415C0.0175562 1.54597 0.0433864 1.67565 0.0935678 1.79662C0.143749 1.9176 0.217297 2.02749 0.31 2.12L4.19 6L0.31 9.88C0.123023 10.067 0.0179796 10.3206 0.0179796 10.585C0.0179796 10.8494 0.123023 11.103 0.31 11.29C0.496978 11.477 0.750574 11.582 1.015 11.582C1.27943 11.582 1.53302 11.477 1.72 11.29L6.31 6.7C6.4027 6.60749 6.47625 6.4976 6.52643 6.37662C6.57661 6.25565 6.60244 6.12597 6.60244 5.995C6.60244 5.86403 6.57661 5.73435 6.52643 5.61338C6.47625 5.4924 6.4027 5.38251 6.31 5.29L1.72 0.7C1.34 0.32 0.7 0.32 0.31 0.71Z" fill="white"/>
</svg>

