<svg width="20" height="20" viewBox="0 0 20 20" fill="none" xmlns="http://www.w3.org/2000/svg">
<path d="M14.348 14.849C14.123 15.074 13.8177 15.2004 13.4995 15.2004C13.1813 15.2004 12.876 15.074 12.651 14.849L10 11.819L7.349 14.848C7.2379 14.9609 7.10555 15.0507 6.95957 15.1122C6.8136 15.1738 6.65688 15.2058 6.49848 15.2064C6.34007 15.207 6.1831 15.1763 6.03663 15.116C5.89015 15.0557 5.75707 14.967 5.64506 14.8549C5.53305 14.7429 5.44432 14.6098 5.384 14.4634C5.32368 14.3169 5.29295 14.1599 5.2936 14.0015C5.29424 13.8431 5.32625 13.6864 5.38776 13.5404C5.44927 13.3944 5.53908 13.2621 5.652 13.151L8.41 10.001L5.651 6.849C5.53808 6.7379 5.44827 6.60555 5.38676 6.45957C5.32525 6.3136 5.29324 6.15688 5.2926 5.99848C5.29195 5.84007 5.32268 5.6831 5.383 5.53663C5.44332 5.39015 5.53205 5.25707 5.64406 5.14506C5.75607 5.03305 5.88915 4.94432 6.03563 4.884C6.1821 4.82368 6.33907 4.79295 6.49748 4.7936C6.65588 4.79424 6.8126 4.82625 6.95857 4.88776C7.10455 4.94927 7.2369 5.03908 7.348 5.152L10 8.183L12.651 5.152C12.7621 5.03908 12.8944 4.94927 13.0404 4.88776C13.1864 4.82625 13.3431 4.79424 13.5015 4.7936C13.6599 4.79295 13.8169 4.82368 13.9634 4.884C14.1098 4.94432 14.2429 5.03305 14.3549 5.14506C14.4669 5.25707 14.5557 5.39015 14.616 5.53663C14.6763 5.6831 14.707 5.84007 14.7064 5.99848C14.7058 6.15688 14.6738 6.3136 14.6122 6.45957C14.5507 6.60555 14.4609 6.7379 14.348 6.849L11.59 10.001L14.348 13.151C14.4596 13.2624 14.5481 13.3948 14.6085 13.5405C14.6689 13.6861 14.6999 13.8423 14.6999 14C14.6999 14.1577 14.6689 14.3139 14.6085 14.4595C14.5481 14.6052 14.4596 14.7376 14.348 14.849V14.849Z" fill="black"/>
</svg>

